<svg width="34" height="32" viewBox="0 0 34 32" fill="none" xmlns="http://www.w3.org/2000/svg">
<path d="M16.7898 0C7.75776 0 0.436218 7.16323 0.436218 16C0.436218 24.8368 7.75776 32 16.7898 32C25.8219 32 33.1435 24.8368 33.1435 16C33.1435 7.16323 25.8219 0 16.7898 0ZM22.2162 23.071C21.959 23.3213 21.6893 23.5839 21.4704 23.7987C21.2732 23.9923 21.1341 24.231 21.0636 24.4897C20.964 24.8548 20.8835 25.2239 20.749 25.5781L19.6023 28.6006C18.6949 28.7942 17.7559 28.9032 16.7898 28.9032V27.1368C16.9013 26.3226 16.286 24.7974 15.2976 23.8303C14.9019 23.4432 14.6797 22.9181 14.6797 22.3703V20.3052C14.6797 19.5542 14.2662 18.8639 13.5943 18.5006C12.6467 17.9877 11.2989 17.271 10.3757 16.8161C9.61865 16.4432 8.91834 15.9684 8.2886 15.4129L8.23584 15.3665C7.7855 14.9687 7.38566 14.5195 7.04493 14.0284C6.42639 13.14 5.4188 11.6787 4.76399 10.729C6.11383 7.79355 8.54643 5.43613 11.5692 4.15548L13.1525 4.93032C13.8541 5.27355 14.6797 4.77484 14.6797 4.0071V3.27806C15.2066 3.19484 15.7427 3.14194 16.288 3.12194L18.1542 4.94774C18.5663 5.35097 18.5663 6.00452 18.1542 6.40774L17.8449 6.70968L17.1631 7.37677C16.9573 7.57806 16.9573 7.90516 17.1631 8.10645L17.4723 8.40903C17.6781 8.61032 17.6781 8.93742 17.4723 9.13871L16.9448 9.65484C16.8458 9.75156 16.7115 9.80586 16.5716 9.80581H15.9788C15.8416 9.80581 15.7097 9.85806 15.6108 9.95226L14.9567 10.5748C14.8765 10.6512 14.8232 10.7506 14.8044 10.8585C14.7857 10.9665 14.8025 11.0775 14.8525 11.1755L15.8805 13.1877C16.0559 13.531 15.8007 13.9348 15.409 13.9348H15.0371C14.9098 13.9348 14.7872 13.8897 14.6916 13.8084L14.0796 13.2884C13.9411 13.1709 13.7738 13.0906 13.594 13.0555C13.4142 13.0205 13.2282 13.0318 13.0542 13.0884L10.9988 13.7587C10.8419 13.8099 10.7054 13.9081 10.6087 14.0394C10.512 14.1707 10.46 14.3285 10.4601 14.4903C10.4601 14.7826 10.6289 15.049 10.8959 15.18L11.6266 15.5374C12.2471 15.8413 12.9316 15.9994 13.6253 15.9994C14.319 15.9994 15.1149 17.76 15.7354 18.0639H20.1371C20.6969 18.0639 21.233 18.2813 21.6293 18.6684L22.5321 19.5516C22.9092 19.9207 23.121 20.4213 23.1209 20.9432C23.1208 21.3387 23.0408 21.7303 22.8856 22.0954C22.7303 22.4606 22.5028 22.7921 22.2162 23.071ZM27.9341 17.1774C27.5522 17.0839 27.2192 16.8548 27.001 16.5342L25.8153 14.7942C25.6418 14.54 25.5493 14.2412 25.5493 13.9355C25.5493 13.6298 25.6418 13.331 25.8153 13.0768L27.1071 11.1813C27.2601 10.9574 27.4698 10.7755 27.7164 10.6555L28.5724 10.2368C29.4639 11.9735 29.9783 13.9271 29.9783 16C29.9783 16.5594 29.9295 17.1071 29.8582 17.6477L27.9341 17.1774Z" fill="#0068F3"/>
</svg>
