<svg width="43" height="32" viewBox="0 0 43 32" fill="none" xmlns="http://www.w3.org/2000/svg">
<path d="M19.3814 11.6973C18.0276 11.0451 16.4365 10.9776 15.0629 11.4473C17.905 11.4473 19.8129 12.763 20.7715 14.6972C21.3436 15.8473 20.4281 17.1435 19.1961 17.1435C20.4254 17.1435 21.3448 18.4374 20.7715 19.5898C19.7892 21.5719 17.6948 22.8576 15.4151 22.8576C15.3779 22.8576 9.11326 22.304 9.11326 22.304L4.68354 24.4468C4.05757 24.7483 3.36175 24.4711 3.08959 23.9468L0.124088 18.2327C-0.153878 17.6792 0.0499771 17.0185 0.587431 16.7149L4.46121 14.59L7.20432 9.82237C7.63057 6.14397 9.5211 2.76905 12.5237 0.394173C13.2835 -0.212929 14.4142 -0.105812 15.0259 0.626334C15.656 1.35848 15.5448 2.42984 14.7849 3.03701C13.9509 3.7155 13.2094 4.48337 12.6163 5.32263C14.062 4.37619 15.7301 3.73342 17.565 3.51913C18.5473 3.39415 19.437 4.05477 19.5482 5.00122C19.678 5.9476 18.9922 6.80472 18.0098 6.91184C16.9348 7.03682 15.9339 7.39396 15.0629 7.89395C16.8048 7.52685 18.9793 7.69231 20.9383 8.60816C21.8279 9.0367 22.1986 10.0545 21.7537 10.9117C21.3275 11.7509 20.2526 12.1079 19.3814 11.6973ZM17.565 16.1613C17.1573 15.3578 16.3418 14.8578 15.415 14.8578C15.1032 14.8569 14.7942 14.9154 14.506 15.03C14.2177 15.1445 13.9558 15.3129 13.7353 15.5253C13.5148 15.7377 13.3401 15.99 13.2212 16.2677C13.1023 16.5454 13.0416 16.8431 13.0426 17.1434C13.0426 18.5203 14.2305 19.4291 15.415 19.4291C16.3418 19.4291 17.1573 18.9291 17.565 18.1255C17.8616 17.5184 18.4732 17.1613 19.1219 17.1434C18.4732 17.1256 17.8616 16.7685 17.565 16.1613ZM42.568 13.7686C42.8461 14.3222 42.6421 14.9829 42.1047 15.2864L38.231 17.4113L35.4879 22.179C35.0616 25.8574 33.1711 29.2323 30.1685 31.6071C29.4393 32.1927 28.3141 32.1305 27.6663 31.375C27.0362 30.6428 27.1474 29.5715 27.9073 28.9643C28.7414 28.2858 29.4828 27.518 30.0758 26.6787C28.6302 27.6251 26.962 28.2679 25.1272 28.4822C24.4587 28.6432 23.2893 28.1196 23.144 27.0001C23.0142 26.0537 23.7 25.1966 24.6824 25.0895C25.7574 24.9644 26.7583 24.6074 27.6293 24.1074C25.8873 24.4745 23.7128 24.309 21.7539 23.3932C20.8643 22.9646 20.4936 21.9468 20.9385 21.0897C21.3646 20.2504 22.4397 19.8933 23.3109 20.304C24.6647 20.9561 26.2558 21.0236 27.6294 20.554C24.7873 20.554 22.8793 19.2383 21.9208 17.3041C21.3487 16.1539 22.2642 14.8578 23.4962 14.8578C22.2668 14.8578 21.3475 13.5639 21.9208 12.4114C22.8569 10.5225 24.8585 9.14156 27.3884 9.14368L33.579 9.69726L38.0087 7.55448C38.6363 7.25221 39.3314 7.53173 39.6026 8.05446L42.568 13.7686ZM27.2771 12.5723C26.3503 12.5723 25.5348 13.0722 25.1271 13.8758C24.8305 14.4829 24.2189 14.84 23.5702 14.8579C24.2189 14.8757 24.8305 15.2329 25.1271 15.84C25.5348 16.6435 26.3503 17.1435 27.2771 17.1435C27.5889 17.1444 27.8979 17.0859 28.1862 16.9713C28.4744 16.8568 28.7363 16.6884 28.9568 16.476C29.1773 16.2636 29.352 16.0113 29.4709 15.7336C29.5898 15.4559 29.6505 15.1583 29.6495 14.8579C29.6495 13.4809 28.4616 12.5723 27.2771 12.5723Z" fill="#0068F3"/>
</svg>
