<svg width="30" height="32" viewBox="0 0 30 32" fill="none" xmlns="http://www.w3.org/2000/svg">
<path d="M26.4765 28H3.91242C3.6404 28 3.37953 28.1054 3.18718 28.2929C2.99484 28.4804 2.88678 28.7348 2.88678 29V31C2.88678 31.2652 2.99484 31.5196 3.18718 31.7071C3.37953 31.8946 3.6404 32 3.91242 32H26.4765C26.7485 32 27.0094 31.8946 27.2017 31.7071C27.394 31.5196 27.5021 31.2652 27.5021 31V29C27.5021 28.7348 27.394 28.4804 27.2017 28.2929C27.0094 28.1054 26.7485 28 26.4765 28ZM27.5021 10H17.2457V7H19.8098C19.9458 7 20.0763 6.94732 20.1724 6.85355C20.2686 6.75979 20.3226 6.63261 20.3226 6.5V3.5C20.3226 3.36739 20.2686 3.24021 20.1724 3.14645C20.0763 3.05268 19.9458 3 19.8098 3H17.2457V0.5C17.2457 0.367392 17.1917 0.240215 17.0955 0.146447C16.9993 0.0526784 16.8689 0 16.7329 0L13.656 0C13.52 0 13.3895 0.0526784 13.2934 0.146447C13.1972 0.240215 13.1432 0.367392 13.1432 0.5V3H10.5791C10.4431 3 10.3126 3.05268 10.2164 3.14645C10.1203 3.24021 10.0662 3.36739 10.0662 3.5V6.5C10.0662 6.63261 10.1203 6.75979 10.2164 6.85355C10.3126 6.94732 10.4431 7 10.5791 7H13.1432V10H2.88678C2.56518 10.0002 2.24815 10.0742 1.96127 10.2159C1.6744 10.3576 1.42572 10.5631 1.2353 10.8158C1.04489 11.0685 0.91808 11.3613 0.865112 11.6706C0.812143 11.9799 0.834499 12.297 0.930376 12.5962L5.61498 26H24.7739L29.4585 12.5962C29.5544 12.297 29.5767 11.9799 29.5238 11.6706C29.4708 11.3613 29.344 11.0685 29.1536 10.8158C28.9632 10.5631 28.7145 10.3576 28.4276 10.2159C28.1407 10.0742 27.8237 10.0002 27.5021 10Z" fill="#0068F3"/>
</svg>
