<svg width="37" height="32" viewBox="0 0 37 32" fill="none" xmlns="http://www.w3.org/2000/svg">
<path d="M18.411 0C13.9623 0 10.3562 3.52563 10.3562 7.875C10.3562 11.3912 15.6205 17.8 17.6374 20.1262C18.0459 20.5975 18.7766 20.5975 19.1845 20.1262C21.2014 17.8 26.4658 11.3912 26.4658 7.875C26.4658 3.52563 22.8596 0 18.411 0ZM18.411 10.5C16.9279 10.5 15.726 9.325 15.726 7.875C15.726 6.425 16.9279 5.25 18.411 5.25C19.8941 5.25 21.0959 6.425 21.0959 7.875C21.0959 9.325 19.8941 10.5 18.411 10.5ZM1.28621 13.4969C0.906598 13.6453 0.581179 13.9016 0.351924 14.2325C0.122669 14.5635 9.09174e-05 14.954 0 15.3538L0 30.9988C0 31.7063 0.730685 32.19 1.40256 31.9275L10.2283 28V13.4325C9.6632 12.4338 9.201 11.4613 8.86986 10.5312L1.28621 13.4969ZM18.411 22.4794C17.5115 22.4794 16.6606 22.0931 16.077 21.4194C14.8202 19.9694 13.4835 18.3181 12.274 16.6244V27.9994L24.5479 31.9994V16.625C23.3384 18.3181 22.0024 19.97 20.7449 21.42C20.1613 22.0931 19.3104 22.4794 18.411 22.4794ZM35.4194 10.0725L26.5936 14V32L35.5357 28.5031C35.9154 28.3548 36.2408 28.0985 36.4701 27.7675C36.6994 27.4366 36.8219 27.046 36.8219 26.6462V11.0013C36.8219 10.2938 36.0912 9.81 35.4194 10.0725Z" fill="#0068F3"/>
</svg>
