<svg width="31" height="32" viewBox="0 0 31 32" fill="none" xmlns="http://www.w3.org/2000/svg">
<path d="M28.7609 5.2302L16.5032 0.229714C16.1298 0.0780609 15.7295 0 15.3253 0C14.9211 0 14.5208 0.0780609 14.1474 0.229714L1.88973 5.2302C0.746952 5.69275 0 6.7866 0 7.99922C0 20.4067 7.30992 28.9825 14.141 31.7703C14.8944 32.0766 15.7435 32.0766 16.4968 31.7703C21.9681 29.5388 30.6442 21.8318 30.6442 7.99922C30.6442 6.7866 29.8972 5.69275 28.7609 5.2302ZM15.3285 27.8949L15.3221 4.08009L26.5519 8.66179C26.3412 18.1252 21.3105 24.9821 15.3285 27.8949Z" fill="#0068F3"/>
</svg>
