<svg width="41" height="32" viewBox="0 0 41 32" fill="none" xmlns="http://www.w3.org/2000/svg">
<path d="M31.7078 14C26.6192 14 22.5023 18.025 22.5023 23C22.5023 27.975 26.6192 32 31.7078 32C36.7964 32 40.9132 27.975 40.9132 23C40.9132 18.025 36.7964 14 31.7078 14ZM35.7991 23.3937C35.7991 23.725 35.5178 24 35.179 24H31.305C30.9662 24 30.6849 23.725 30.6849 23.3937V18.6063C30.6849 18.275 30.9662 18 31.305 18H32.1105C32.4493 18 32.7306 18.275 32.7306 18.6063V22H35.179C35.5178 22 35.7991 22.275 35.7991 22.6063V23.3937ZM20.4566 23C20.4566 21.2625 20.8849 19.6187 21.6201 18.1562C21.1087 18.0625 20.5845 18 20.0475 18H18.9799C17.5607 18.6375 15.9817 19 14.3196 19C12.6575 19 11.0849 18.6375 9.65936 18H8.59178C3.8484 18 0 21.7625 0 26.4V29C0 30.6562 1.37443 32 3.06849 32H25.2575C22.3616 30.0063 20.4566 26.7188 20.4566 23ZM14.3196 16C18.8393 16 22.5023 12.4187 22.5023 8C22.5023 3.58125 18.8393 0 14.3196 0C9.8 0 6.13699 3.58125 6.13699 8C6.13699 12.4187 9.8 16 14.3196 16Z" fill="#0068F3"/>
</svg>
