<svg width="195" height="20" viewBox="0 0 195 20" fill="none" xmlns="http://www.w3.org/2000/svg">
<path d="M0.9375 15V0.454545H7.21591C8.29545 0.454545 9.24006 0.667613 10.0497 1.09375C10.8594 1.51989 11.4891 2.11884 11.9389 2.89062C12.3887 3.66241 12.6136 4.56439 12.6136 5.59659C12.6136 6.63826 12.3816 7.54025 11.9176 8.30256C11.4583 9.06487 10.812 9.65199 9.97869 10.0639C9.15009 10.4759 8.18182 10.6818 7.07386 10.6818H3.32386V7.61364H6.27841C6.74242 7.61364 7.13778 7.53314 7.46449 7.37216C7.79593 7.20644 8.04924 6.97206 8.22443 6.66903C8.40436 6.366 8.49432 6.00852 8.49432 5.59659C8.49432 5.17992 8.40436 4.82481 8.22443 4.53125C8.04924 4.23295 7.79593 4.00568 7.46449 3.84943C7.13778 3.68845 6.74242 3.60795 6.27841 3.60795H4.88636V15H0.9375ZM19.1406 15.1989C17.9569 15.1989 16.9437 14.9645 16.1009 14.4957C15.258 14.0223 14.6117 13.3641 14.1619 12.5213C13.7121 11.6738 13.4872 10.6913 13.4872 9.57386C13.4872 8.45644 13.7121 7.47633 14.1619 6.63352C14.6117 5.78598 15.258 5.12784 16.1009 4.65909C16.9437 4.18561 17.9569 3.94886 19.1406 3.94886C20.3243 3.94886 21.3376 4.18561 22.1804 4.65909C23.0232 5.12784 23.6695 5.78598 24.1193 6.63352C24.5691 7.47633 24.794 8.45644 24.794 9.57386C24.794 10.6913 24.5691 11.6738 24.1193 12.5213C23.6695 13.3641 23.0232 14.0223 22.1804 14.4957C21.3376 14.9645 20.3243 15.1989 19.1406 15.1989ZM19.169 12.3011C19.5005 12.3011 19.7869 12.1899 20.0284 11.9673C20.2699 11.7448 20.4569 11.4276 20.5895 11.0156C20.7221 10.6037 20.7884 10.1136 20.7884 9.54545C20.7884 8.97254 20.7221 8.48248 20.5895 8.07528C20.4569 7.66335 20.2699 7.34612 20.0284 7.12358C19.7869 6.90104 19.5005 6.78977 19.169 6.78977C18.8187 6.78977 18.518 6.90104 18.267 7.12358C18.0161 7.34612 17.8243 7.66335 17.6918 8.07528C17.5592 8.48248 17.4929 8.97254 17.4929 9.54545C17.4929 10.1136 17.5592 10.6037 17.6918 11.0156C17.8243 11.4276 18.0161 11.7448 18.267 11.9673C18.518 12.1899 18.8187 12.3011 19.169 12.3011ZM30.3054 0.454545V15H26.3849V0.454545H30.3054ZM35.3427 15.1705C34.6467 15.1705 34.0311 15.0568 33.4961 14.8295C32.9658 14.5975 32.5491 14.2472 32.2461 13.7784C31.9431 13.3097 31.7915 12.7131 31.7915 11.9886C31.7915 11.392 31.8933 10.883 32.0969 10.4616C32.3005 10.0355 32.5846 9.6875 32.9492 9.41761C33.3138 9.14773 33.7376 8.94176 34.2205 8.79972C34.7082 8.65767 35.2338 8.56534 35.7972 8.52273C36.408 8.47538 36.8981 8.41856 37.2674 8.35227C37.6415 8.28125 37.9113 8.18419 38.0771 8.06108C38.2428 7.93324 38.3256 7.76515 38.3256 7.55682V7.52841C38.3256 7.24432 38.2167 7.02652 37.9989 6.875C37.7811 6.72348 37.5018 6.64773 37.1609 6.64773C36.7868 6.64773 36.4814 6.73059 36.2447 6.89631C36.0127 7.05729 35.873 7.30587 35.8256 7.64205H32.2177C32.265 6.97917 32.4757 6.36837 32.8498 5.80966C33.2286 5.24621 33.7802 4.7964 34.5046 4.46023C35.229 4.11932 36.1334 3.94886 37.2177 3.94886C37.9989 3.94886 38.6997 4.04119 39.32 4.22585C39.9402 4.40578 40.4682 4.65909 40.9038 4.9858C41.3394 5.30777 41.6708 5.68655 41.8981 6.12216C42.1301 6.55303 42.2461 7.02178 42.2461 7.52841V15H38.5813V13.4659H38.4961C38.2783 13.8731 38.0131 14.2022 37.7006 14.4531C37.3929 14.7041 37.0401 14.8864 36.6424 15C36.2494 15.1136 35.8162 15.1705 35.3427 15.1705ZM36.6211 12.6989C36.9194 12.6989 37.1987 12.6373 37.4592 12.5142C37.7243 12.3911 37.9397 12.2135 38.1055 11.9815C38.2712 11.7495 38.354 11.4678 38.354 11.1364V10.2273C38.2499 10.2699 38.1386 10.3101 38.0202 10.348C37.9066 10.3859 37.7835 10.4214 37.6509 10.4545C37.5231 10.4877 37.3858 10.5185 37.239 10.5469C37.0969 10.5753 36.9478 10.6013 36.7915 10.625C36.4885 10.6723 36.2399 10.7505 36.0458 10.8594C35.8564 10.9635 35.7144 11.0938 35.6197 11.25C35.5297 11.4015 35.4847 11.572 35.4847 11.7614C35.4847 12.0644 35.5913 12.2964 35.8043 12.4574C36.0174 12.6184 36.2897 12.6989 36.6211 12.6989ZM44.1193 15V4.09091H47.9261V6.16477H48.0398C48.2386 5.39773 48.5535 4.83665 48.9844 4.48153C49.42 4.12642 49.929 3.94886 50.5114 3.94886C50.6818 3.94886 50.8499 3.96307 51.0156 3.99148C51.1861 4.01515 51.3494 4.05066 51.5057 4.09801V7.44318C51.3116 7.37689 51.0724 7.32718 50.7884 7.29403C50.5043 7.26089 50.2604 7.24432 50.0568 7.24432C49.6733 7.24432 49.3277 7.33191 49.0199 7.5071C48.7169 7.67756 48.4777 7.91903 48.3026 8.23153C48.1274 8.5393 48.0398 8.90152 48.0398 9.31818V15H44.1193Z" fill="#0068F3"/>
<path d="M59.1832 15V0.454545H67.9048V2.01705H60.9446V6.93182H67.2514V8.49432H60.9446V15H59.1832ZM74.3253 15.2273C73.3404 15.2273 72.4763 14.9929 71.733 14.5241C70.9943 14.0554 70.4167 13.3996 70 12.5568C69.5881 11.714 69.3821 10.7292 69.3821 9.60227C69.3821 8.46591 69.5881 7.47396 70 6.62642C70.4167 5.77888 70.9943 5.12074 71.733 4.65199C72.4763 4.18324 73.3404 3.94886 74.3253 3.94886C75.3101 3.94886 76.1719 4.18324 76.9105 4.65199C77.6539 5.12074 78.2315 5.77888 78.6435 6.62642C79.0601 7.47396 79.2685 8.46591 79.2685 9.60227C79.2685 10.7292 79.0601 11.714 78.6435 12.5568C78.2315 13.3996 77.6539 14.0554 76.9105 14.5241C76.1719 14.9929 75.3101 15.2273 74.3253 15.2273ZM74.3253 13.7216C75.0734 13.7216 75.6889 13.5298 76.1719 13.1463C76.6548 12.7628 77.0123 12.2585 77.2443 11.6335C77.4763 11.0085 77.5923 10.3314 77.5923 9.60227C77.5923 8.87311 77.4763 8.19366 77.2443 7.56392C77.0123 6.93419 76.6548 6.42519 76.1719 6.03693C75.6889 5.64867 75.0734 5.45455 74.3253 5.45455C73.5772 5.45455 72.9616 5.64867 72.4787 6.03693C71.9957 6.42519 71.6383 6.93419 71.4062 7.56392C71.1742 8.19366 71.0582 8.87311 71.0582 9.60227C71.0582 10.3314 71.1742 11.0085 71.4062 11.6335C71.6383 12.2585 71.9957 12.7628 72.4787 13.1463C72.9616 13.5298 73.5772 13.7216 74.3253 13.7216ZM81.8271 15V4.09091H83.4464V5.73864H83.56C83.7589 5.19886 84.1187 4.76089 84.6396 4.42472C85.1604 4.08854 85.7475 3.92045 86.4009 3.92045C86.524 3.92045 86.6779 3.92282 86.8626 3.92756C87.0472 3.93229 87.1869 3.93939 87.2816 3.94886V5.65341C87.2248 5.6392 87.0946 5.6179 86.891 5.58949C86.6921 5.55634 86.4814 5.53977 86.2589 5.53977C85.7286 5.53977 85.2551 5.65104 84.8384 5.87358C84.4265 6.09138 84.0998 6.39441 83.8583 6.78267C83.6216 7.16619 83.5032 7.60417 83.5032 8.09659V15H81.8271ZM91.9158 15L88.592 4.09091H90.3533L92.7113 12.4432H92.8249L95.1545 4.09091H96.9442L99.2454 12.4148H99.359L101.717 4.09091H103.478L100.154 15H98.5067L96.1204 6.61932H95.9499L93.5636 15H91.9158ZM108.904 15.2557C108.213 15.2557 107.586 15.1255 107.022 14.8651C106.459 14.5999 106.011 14.2188 105.68 13.7216C105.349 13.2197 105.183 12.6136 105.183 11.9034C105.183 11.2784 105.306 10.7718 105.552 10.3835C105.798 9.99053 106.127 9.68276 106.539 9.46023C106.951 9.23769 107.406 9.07197 107.903 8.96307C108.405 8.84943 108.909 8.75947 109.416 8.69318C110.079 8.60795 110.616 8.54403 111.028 8.50142C111.445 8.45407 111.748 8.37595 111.937 8.26705C112.131 8.15814 112.228 7.96875 112.228 7.69886V7.64205C112.228 6.94129 112.037 6.39678 111.653 6.00852C111.274 5.62027 110.699 5.42614 109.927 5.42614C109.127 5.42614 108.5 5.60133 108.045 5.9517C107.591 6.30208 107.271 6.67614 107.086 7.07386L105.495 6.50568C105.779 5.8428 106.158 5.3267 106.632 4.95739C107.11 4.58333 107.631 4.32292 108.194 4.17614C108.762 4.02462 109.321 3.94886 109.87 3.94886C110.221 3.94886 110.623 3.99148 111.078 4.0767C111.537 4.1572 111.98 4.32528 112.406 4.58097C112.837 4.83665 113.194 5.22254 113.478 5.73864C113.762 6.25473 113.904 6.94602 113.904 7.8125V15H112.228V13.5227H112.143C112.029 13.7595 111.84 14.0128 111.575 14.2827C111.31 14.5526 110.957 14.7822 110.517 14.9716C110.076 15.161 109.539 15.2557 108.904 15.2557ZM109.16 13.75C109.823 13.75 110.382 13.6198 110.836 13.3594C111.296 13.099 111.641 12.7628 111.873 12.3509C112.11 11.9389 112.228 11.5057 112.228 11.0511V9.51705C112.157 9.60227 112.001 9.6804 111.76 9.75142C111.523 9.81771 111.248 9.87689 110.936 9.92898C110.628 9.97633 110.327 10.0189 110.034 10.0568C109.745 10.09 109.511 10.1184 109.331 10.142C108.895 10.1989 108.488 10.2912 108.109 10.419C107.735 10.5421 107.432 10.7292 107.2 10.9801C106.973 11.2263 106.859 11.5625 106.859 11.9886C106.859 12.571 107.074 13.0114 107.505 13.3097C107.941 13.6032 108.493 13.75 109.16 13.75ZM116.964 15V4.09091H118.583V5.73864H118.697C118.896 5.19886 119.255 4.76089 119.776 4.42472C120.297 4.08854 120.884 3.92045 121.538 3.92045C121.661 3.92045 121.815 3.92282 121.999 3.92756C122.184 3.93229 122.324 3.93939 122.418 3.94886V5.65341C122.362 5.6392 122.231 5.6179 122.028 5.58949C121.829 5.55634 121.618 5.53977 121.396 5.53977C120.865 5.53977 120.392 5.65104 119.975 5.87358C119.563 6.09138 119.237 6.39441 118.995 6.78267C118.758 7.16619 118.64 7.60417 118.64 8.09659V15H116.964ZM128.192 15.2273C127.283 15.2273 126.481 14.9976 125.785 14.5384C125.089 14.0743 124.544 13.4209 124.151 12.5781C123.758 11.7306 123.562 10.7292 123.562 9.57386C123.562 8.42803 123.758 7.43371 124.151 6.59091C124.544 5.74811 125.091 5.09706 125.792 4.63778C126.493 4.1785 127.302 3.94886 128.221 3.94886C128.931 3.94886 129.492 4.06723 129.904 4.30398C130.321 4.53598 130.638 4.80114 130.856 5.09943C131.078 5.39299 131.251 5.63447 131.374 5.82386H131.516V0.454545H133.192V15H131.573V13.3239H131.374C131.251 13.5227 131.076 13.7737 130.849 14.0767C130.621 14.375 130.297 14.6425 129.876 14.8793C129.454 15.1113 128.893 15.2273 128.192 15.2273ZM128.42 13.7216C129.092 13.7216 129.66 13.5464 130.124 13.196C130.588 12.8409 130.941 12.3509 131.183 11.7259C131.424 11.0961 131.545 10.3693 131.545 9.54545C131.545 8.73106 131.426 8.01847 131.19 7.40767C130.953 6.79214 130.603 6.31392 130.138 5.97301C129.674 5.62737 129.102 5.45455 128.42 5.45455C127.71 5.45455 127.118 5.63684 126.644 6.00142C126.175 6.36127 125.823 6.85133 125.586 7.47159C125.354 8.08712 125.238 8.77841 125.238 9.54545C125.238 10.322 125.356 11.0275 125.593 11.6619C125.835 12.2917 126.19 12.7936 126.658 13.1676C127.132 13.5369 127.719 13.7216 128.42 13.7216ZM136.495 15V4.09091H138.171V15H136.495ZM137.347 2.27273C137.021 2.27273 136.739 2.16146 136.502 1.93892C136.27 1.71638 136.154 1.44886 136.154 1.13636C136.154 0.823864 136.27 0.556345 136.502 0.333806C136.739 0.111269 137.021 0 137.347 0C137.674 0 137.953 0.111269 138.185 0.333806C138.422 0.556345 138.54 0.823864 138.54 1.13636C138.54 1.44886 138.422 1.71638 138.185 1.93892C137.953 2.16146 137.674 2.27273 137.347 2.27273ZM142.917 8.4375V15H141.241V4.09091H142.86V5.79545H143.002C143.258 5.24148 143.646 4.7964 144.167 4.46023C144.688 4.11932 145.36 3.94886 146.184 3.94886C146.923 3.94886 147.569 4.10038 148.123 4.40341C148.677 4.7017 149.108 5.15625 149.416 5.76705C149.724 6.37311 149.877 7.14015 149.877 8.06818V15H148.201V8.18182C148.201 7.32481 147.979 6.6572 147.534 6.17898C147.089 5.69602 146.478 5.45455 145.701 5.45455C145.166 5.45455 144.688 5.57055 144.267 5.80256C143.85 6.03456 143.521 6.37311 143.279 6.81818C143.038 7.26326 142.917 7.80303 142.917 8.4375ZM157.344 19.3182C156.534 19.3182 155.838 19.214 155.256 19.0057C154.673 18.8021 154.188 18.5322 153.8 18.196C153.416 17.8646 153.111 17.5095 152.884 17.1307L154.219 16.1932C154.37 16.392 154.562 16.6193 154.794 16.875C155.026 17.1354 155.343 17.3603 155.746 17.5497C156.153 17.7438 156.686 17.8409 157.344 17.8409C158.224 17.8409 158.951 17.6278 159.524 17.2017C160.097 16.7756 160.384 16.108 160.384 15.1989V12.983H160.241C160.118 13.1818 159.943 13.428 159.716 13.7216C159.493 14.0104 159.171 14.2685 158.75 14.4957C158.333 14.7183 157.77 14.8295 157.06 14.8295C156.179 14.8295 155.388 14.6212 154.688 14.2045C153.991 13.7879 153.44 13.1818 153.033 12.3864C152.63 11.5909 152.429 10.625 152.429 9.48864C152.429 8.37121 152.625 7.3982 153.018 6.5696C153.411 5.73627 153.958 5.09233 154.659 4.63778C155.36 4.1785 156.17 3.94886 157.088 3.94886C157.798 3.94886 158.362 4.06723 158.778 4.30398C159.2 4.53598 159.522 4.80114 159.744 5.09943C159.972 5.39299 160.147 5.63447 160.27 5.82386H160.44V4.09091H162.06V15.3125C162.06 16.25 161.847 17.0123 161.42 17.5994C160.999 18.1913 160.431 18.6245 159.716 18.8991C159.006 19.1785 158.215 19.3182 157.344 19.3182ZM157.287 13.3239C157.959 13.3239 158.527 13.17 158.991 12.8622C159.455 12.5545 159.808 12.1117 160.05 11.5341C160.291 10.9564 160.412 10.2652 160.412 9.46023C160.412 8.67424 160.294 7.98059 160.057 7.37926C159.82 6.77794 159.47 6.30682 159.006 5.96591C158.542 5.625 157.969 5.45455 157.287 5.45455C156.577 5.45455 155.985 5.63447 155.511 5.99432C155.043 6.35417 154.69 6.83712 154.453 7.44318C154.221 8.04924 154.105 8.72159 154.105 9.46023C154.105 10.2178 154.223 10.8878 154.46 11.4702C154.702 12.0478 155.057 12.5024 155.526 12.8338C155.999 13.1605 156.586 13.3239 157.287 13.3239ZM183.253 7.72727C183.253 9.26136 182.976 10.5871 182.422 11.7045C181.868 12.822 181.108 13.6837 180.142 14.2898C179.176 14.8958 178.073 15.1989 176.832 15.1989C175.592 15.1989 174.489 14.8958 173.523 14.2898C172.557 13.6837 171.797 12.822 171.243 11.7045C170.689 10.5871 170.412 9.26136 170.412 7.72727C170.412 6.19318 170.689 4.86742 171.243 3.75C171.797 2.63258 172.557 1.77083 173.523 1.16477C174.489 0.558712 175.592 0.255681 176.832 0.255681C178.073 0.255681 179.176 0.558712 180.142 1.16477C181.108 1.77083 181.868 2.63258 182.422 3.75C182.976 4.86742 183.253 6.19318 183.253 7.72727ZM181.548 7.72727C181.548 6.4678 181.338 5.40483 180.916 4.53835C180.5 3.67188 179.934 3.0161 179.219 2.57102C178.509 2.12595 177.713 1.90341 176.832 1.90341C175.952 1.90341 175.154 2.12595 174.439 2.57102C173.729 3.0161 173.163 3.67188 172.741 4.53835C172.325 5.40483 172.116 6.4678 172.116 7.72727C172.116 8.98674 172.325 10.0497 172.741 10.9162C173.163 11.7827 173.729 12.4384 174.439 12.8835C175.154 13.3286 175.952 13.5511 176.832 13.5511C177.713 13.5511 178.509 13.3286 179.219 12.8835C179.934 12.4384 180.5 11.7827 180.916 10.9162C181.338 10.0497 181.548 8.98674 181.548 7.72727ZM187.067 19.0909C186.783 19.0909 186.529 19.0672 186.307 19.0199C186.084 18.9773 185.93 18.9347 185.845 18.892L186.271 17.4148C186.679 17.5189 187.038 17.5568 187.351 17.5284C187.663 17.5 187.94 17.3603 188.182 17.1094C188.428 16.8632 188.653 16.4631 188.857 15.9091L189.169 15.0568L185.135 4.09091H186.953L189.964 12.7841H190.078L193.089 4.09091H194.908L190.277 16.5909C190.069 17.1544 189.811 17.6207 189.503 17.9901C189.195 18.3641 188.838 18.6411 188.43 18.821C188.028 19.0009 187.573 19.0909 187.067 19.0909Z" fill="#626A87"/>
</svg>
