<svg width="137" height="15" viewBox="0 0 137 15" fill="none" xmlns="http://www.w3.org/2000/svg">
<path d="M0.65625 11V0.818182H5.05114C5.80682 0.818182 6.46804 0.967329 7.0348 1.26562C7.60156 1.56392 8.04238 1.98319 8.35724 2.52344C8.67211 3.06368 8.82955 3.69508 8.82955 4.41761C8.82955 5.14678 8.66714 5.77817 8.34233 6.31179C8.02083 6.84541 7.56842 7.25639 6.98509 7.54474C6.40507 7.8331 5.72727 7.97727 4.9517 7.97727H2.3267V5.82955H4.39489C4.7197 5.82955 4.99645 5.7732 5.22514 5.66051C5.45715 5.54451 5.63447 5.38044 5.7571 5.16832C5.88305 4.9562 5.94602 4.70597 5.94602 4.41761C5.94602 4.12595 5.88305 3.87737 5.7571 3.67188C5.63447 3.46307 5.45715 3.30398 5.22514 3.1946C4.99645 3.08191 4.7197 3.02557 4.39489 3.02557H3.42045V11H0.65625ZM13.3984 11.1392C12.5698 11.1392 11.8606 10.9751 11.2706 10.647C10.6806 10.3156 10.2282 9.85488 9.91335 9.26491C9.59848 8.67164 9.44105 7.9839 9.44105 7.2017C9.44105 6.41951 9.59848 5.73343 9.91335 5.14347C10.2282 4.55019 10.6806 4.08949 11.2706 3.76136C11.8606 3.42992 12.5698 3.2642 13.3984 3.2642C14.227 3.2642 14.9363 3.42992 15.5263 3.76136C16.1162 4.08949 16.5687 4.55019 16.8835 5.14347C17.1984 5.73343 17.3558 6.41951 17.3558 7.2017C17.3558 7.9839 17.1984 8.67164 16.8835 9.26491C16.5687 9.85488 16.1162 10.3156 15.5263 10.647C14.9363 10.9751 14.227 11.1392 13.3984 11.1392ZM13.4183 9.1108C13.6503 9.1108 13.8509 9.03291 14.0199 8.87713C14.1889 8.72135 14.3198 8.49929 14.4126 8.21094C14.5054 7.92259 14.5518 7.57955 14.5518 7.18182C14.5518 6.78078 14.5054 6.43774 14.4126 6.1527C14.3198 5.86435 14.1889 5.64228 14.0199 5.48651C13.8509 5.33073 13.6503 5.25284 13.4183 5.25284C13.1731 5.25284 12.9626 5.33073 12.7869 5.48651C12.6113 5.64228 12.477 5.86435 12.3842 6.1527C12.2914 6.43774 12.245 6.78078 12.245 7.18182C12.245 7.57955 12.2914 7.92259 12.3842 8.21094C12.477 8.49929 12.6113 8.72135 12.7869 8.87713C12.9626 9.03291 13.1731 9.1108 13.4183 9.1108ZM21.2138 0.818182V11H18.4695V0.818182H21.2138ZM24.7399 11.1193C24.2527 11.1193 23.8218 11.0398 23.4473 10.8807C23.0761 10.7183 22.7844 10.473 22.5723 10.1449C22.3601 9.81676 22.2541 9.39915 22.2541 8.89205C22.2541 8.47443 22.3253 8.11813 22.4679 7.82315C22.6104 7.52486 22.8092 7.28125 23.0645 7.09233C23.3197 6.90341 23.6163 6.75923 23.9544 6.6598C24.2958 6.56037 24.6636 6.49574 25.0581 6.46591C25.4856 6.43276 25.8287 6.39299 26.0872 6.34659C26.349 6.29687 26.5379 6.22893 26.6539 6.14276C26.7699 6.05327 26.8279 5.93561 26.8279 5.78977V5.76989C26.8279 5.57102 26.7517 5.41856 26.5993 5.3125C26.4468 5.20644 26.2512 5.15341 26.0126 5.15341C25.7508 5.15341 25.537 5.21141 25.3713 5.32741C25.2089 5.4401 25.1111 5.61411 25.0779 5.84943H22.5524C22.5855 5.38542 22.733 4.95786 22.9949 4.56676C23.26 4.17235 23.6461 3.85748 24.1532 3.62216C24.6603 3.38352 25.2934 3.2642 26.0524 3.2642C26.5993 3.2642 27.0898 3.32884 27.524 3.4581C27.9582 3.58404 28.3277 3.76136 28.6326 3.99006C28.9376 4.21544 29.1696 4.48059 29.3287 4.78551C29.4911 5.08712 29.5723 5.41525 29.5723 5.76989V11H27.0069V9.92614H26.9473C26.7948 10.2112 26.6092 10.4415 26.3904 10.6172C26.175 10.7929 25.9281 10.9205 25.6497 11C25.3746 11.0795 25.0713 11.1193 24.7399 11.1193ZM25.6348 9.3892C25.8436 9.3892 26.0391 9.34612 26.2214 9.25994C26.407 9.17377 26.5578 9.04948 26.6738 8.88707C26.7898 8.72467 26.8478 8.52746 26.8478 8.29545V7.65909C26.7749 7.68892 26.697 7.71709 26.6142 7.74361C26.5346 7.77012 26.4484 7.79498 26.3556 7.81818C26.2662 7.84138 26.17 7.86293 26.0673 7.88281C25.9679 7.9027 25.8635 7.92093 25.7541 7.9375C25.542 7.97064 25.368 8.02533 25.2321 8.10156C25.0995 8.17448 25.0001 8.26562 24.9338 8.375C24.8708 8.48106 24.8393 8.60038 24.8393 8.73295C24.8393 8.94508 24.9139 9.10748 25.063 9.22017C25.2122 9.33286 25.4028 9.3892 25.6348 9.3892ZM30.8835 11V3.36364H33.5483V4.81534H33.6278C33.767 4.27841 33.9875 3.88565 34.2891 3.63707C34.594 3.38849 34.9503 3.2642 35.358 3.2642C35.4773 3.2642 35.5949 3.27415 35.7109 3.29403C35.8303 3.31061 35.9446 3.33546 36.054 3.36861V5.71023C35.9181 5.66383 35.7507 5.62902 35.5518 5.60582C35.353 5.58262 35.1823 5.57102 35.0398 5.57102C34.7713 5.57102 34.5294 5.63234 34.3139 5.75497C34.1018 5.87429 33.9344 6.04332 33.8118 6.26207C33.6892 6.47751 33.6278 6.73106 33.6278 7.02273V11H30.8835Z" fill="#0068F3"/>
<path d="M41.4283 11V0.818182H47.5334V1.91193H42.6612V5.35227H47.076V6.44602H42.6612V11H41.4283ZM52.0277 11.1591C51.3383 11.1591 50.7334 10.995 50.2131 10.6669C49.696 10.3388 49.2917 9.87973 49 9.28977C48.7116 8.69981 48.5675 8.01042 48.5675 7.22159C48.5675 6.42614 48.7116 5.73177 49 5.13849C49.2917 4.54522 49.696 4.08452 50.2131 3.75639C50.7334 3.42827 51.3383 3.2642 52.0277 3.2642C52.7171 3.2642 53.3203 3.42827 53.8374 3.75639C54.3577 4.08452 54.7621 4.54522 55.0504 5.13849C55.3421 5.73177 55.4879 6.42614 55.4879 7.22159C55.4879 8.01042 55.3421 8.69981 55.0504 9.28977C54.7621 9.87973 54.3577 10.3388 53.8374 10.6669C53.3203 10.995 52.7171 11.1591 52.0277 11.1591ZM52.0277 10.1051C52.5514 10.1051 52.9822 9.97088 53.3203 9.70241C53.6584 9.43395 53.9086 9.08097 54.071 8.64347C54.2334 8.20597 54.3146 7.73201 54.3146 7.22159C54.3146 6.71117 54.2334 6.23556 54.071 5.79474C53.9086 5.35393 53.6584 4.99763 53.3203 4.72585C52.9822 4.45407 52.5514 4.31818 52.0277 4.31818C51.504 4.31818 51.0732 4.45407 50.7351 4.72585C50.397 4.99763 50.1468 5.35393 49.9844 5.79474C49.822 6.23556 49.7408 6.71117 49.7408 7.22159C49.7408 7.73201 49.822 8.20597 49.9844 8.64347C50.1468 9.08097 50.397 9.43395 50.7351 9.70241C51.0732 9.97088 51.504 10.1051 52.0277 10.1051ZM57.2789 11V3.36364H58.4125V4.51705H58.492C58.6312 4.1392 58.8831 3.83262 59.2477 3.5973C59.6123 3.36198 60.0233 3.24432 60.4806 3.24432C60.5668 3.24432 60.6745 3.24597 60.8038 3.24929C60.9331 3.2526 61.0308 3.25758 61.0971 3.2642V4.45739C61.0574 4.44744 60.9662 4.43253 60.8237 4.41264C60.6845 4.38944 60.537 4.37784 60.3812 4.37784C60.01 4.37784 59.6786 4.45573 59.3869 4.61151C59.0985 4.76397 58.8699 4.97609 58.7008 5.24787C58.5351 5.51634 58.4522 5.82292 58.4522 6.16761V11H57.2789ZM64.3411 11L62.0144 3.36364H63.2473L64.8979 9.21023H64.9775L66.6081 3.36364H67.861L69.4718 9.19034H69.5513L71.2019 3.36364H72.4348L70.1081 11H68.9547L67.2843 5.13352H67.165L65.4945 11H64.3411ZM76.2331 11.179C75.7492 11.179 75.3101 11.0878 74.9157 10.9055C74.5212 10.7199 74.208 10.4531 73.976 10.1051C73.744 9.75379 73.628 9.32955 73.628 8.83239C73.628 8.39489 73.7142 8.04025 73.8865 7.76847C74.0589 7.49337 74.2892 7.27794 74.5776 7.12216C74.8659 6.96638 75.1841 6.85038 75.5321 6.77415C75.8835 6.6946 76.2364 6.63163 76.5911 6.58523C77.0551 6.52557 77.4313 6.48082 77.7196 6.45099C78.0113 6.41785 78.2234 6.36316 78.356 6.28693C78.4919 6.2107 78.5598 6.07812 78.5598 5.8892V5.84943C78.5598 5.3589 78.4256 4.97775 78.1571 4.70597C77.892 4.43419 77.4893 4.2983 76.949 4.2983C76.3889 4.2983 75.9498 4.42093 75.6316 4.66619C75.3134 4.91146 75.0897 5.1733 74.9604 5.4517L73.8468 5.05398C74.0456 4.58996 74.3108 4.22869 74.6422 3.97017C74.977 3.70833 75.3416 3.52604 75.736 3.4233C76.1337 3.31723 76.5248 3.2642 76.9093 3.2642C77.1545 3.2642 77.4363 3.29403 77.7544 3.35369C78.0759 3.41004 78.3858 3.5277 78.6841 3.70668C78.9857 3.88565 79.236 4.15578 79.4348 4.51705C79.6337 4.87831 79.7331 5.36222 79.7331 5.96875V11H78.5598V9.96591H78.5002C78.4206 10.1316 78.2881 10.3089 78.1025 10.4979C77.9168 10.6868 77.6699 10.8475 77.3617 10.9801C77.0534 11.1127 76.6773 11.179 76.2331 11.179ZM76.4121 10.125C76.8761 10.125 77.2672 10.0339 77.5854 9.85156C77.9069 9.66927 78.1489 9.43395 78.3113 9.1456C78.477 8.85724 78.5598 8.55398 78.5598 8.2358V7.16193C78.5101 7.22159 78.4007 7.27628 78.2317 7.32599C78.066 7.3724 77.8738 7.41383 77.655 7.45028C77.4396 7.48343 77.2291 7.51326 77.0236 7.53977C76.8214 7.56297 76.6574 7.58286 76.5314 7.59943C76.2265 7.6392 75.9415 7.70384 75.6763 7.79332C75.4145 7.8795 75.2024 8.01042 75.04 8.18608C74.8809 8.35843 74.8013 8.59375 74.8013 8.89205C74.8013 9.29972 74.9521 9.60795 75.2537 9.81676C75.5587 10.0223 75.9448 10.125 76.4121 10.125ZM81.8746 11V3.36364H83.0082V4.51705H83.0877C83.2269 4.1392 83.4788 3.83262 83.8434 3.5973C84.208 3.36198 84.619 3.24432 85.0763 3.24432C85.1625 3.24432 85.2702 3.24597 85.3995 3.24929C85.5288 3.2526 85.6265 3.25758 85.6928 3.2642V4.45739C85.6531 4.44744 85.5619 4.43253 85.4194 4.41264C85.2802 4.38944 85.1327 4.37784 84.9769 4.37784C84.6057 4.37784 84.2743 4.45573 83.9826 4.61151C83.6942 4.76397 83.4656 4.97609 83.2965 5.24787C83.1308 5.51634 83.0479 5.82292 83.0479 6.16761V11H81.8746ZM89.7347 11.1591C89.0984 11.1591 88.5366 10.9983 88.0494 10.6768C87.5621 10.352 87.181 9.89465 86.9059 9.30469C86.6308 8.71141 86.4933 8.01042 86.4933 7.2017C86.4933 6.39962 86.6308 5.7036 86.9059 5.11364C87.181 4.52367 87.5638 4.06794 88.0543 3.74645C88.5449 3.42495 89.1116 3.2642 89.7546 3.2642C90.2518 3.2642 90.6445 3.34706 90.9329 3.51278C91.2246 3.67519 91.4466 3.8608 91.5991 4.0696C91.7549 4.27509 91.8758 4.44413 91.962 4.5767H92.0614V0.818182H93.2347V11H92.1012V9.8267H91.962C91.8758 9.96591 91.7532 10.1416 91.5941 10.3537C91.435 10.5625 91.208 10.7498 90.913 10.9155C90.618 11.0779 90.2253 11.1591 89.7347 11.1591ZM89.8938 10.1051C90.3645 10.1051 90.7622 9.98248 91.087 9.73722C91.4118 9.48864 91.6587 9.1456 91.8278 8.7081C91.9968 8.26728 92.0813 7.75852 92.0813 7.18182C92.0813 6.61174 91.9985 6.11293 91.8327 5.68537C91.667 5.2545 91.4218 4.91974 91.0969 4.68111C90.7721 4.43916 90.3711 4.31818 89.8938 4.31818C89.3967 4.31818 88.9824 4.44579 88.6509 4.70099C88.3228 4.95289 88.0759 5.29593 87.9102 5.73011C87.7478 6.16098 87.6665 6.64489 87.6665 7.18182C87.6665 7.72538 87.7494 8.21922 87.9151 8.66335C88.0842 9.10417 88.3327 9.45549 88.6609 9.71733C88.9923 9.97585 89.4033 10.1051 89.8938 10.1051ZM95.5465 11V3.36364H96.7198V11H95.5465ZM96.1431 2.09091C95.9144 2.09091 95.7172 2.01302 95.5515 1.85724C95.3891 1.70147 95.3079 1.5142 95.3079 1.29545C95.3079 1.0767 95.3891 0.889441 95.5515 0.733664C95.7172 0.577888 95.9144 0.5 96.1431 0.5C96.3718 0.5 96.5674 0.577888 96.7298 0.733664C96.8955 0.889441 96.9783 1.0767 96.9783 1.29545C96.9783 1.5142 96.8955 1.70147 96.7298 1.85724C96.5674 2.01302 96.3718 2.09091 96.1431 2.09091ZM100.042 6.40625V11H98.8688V3.36364H100.002V4.55682H100.102C100.281 4.16903 100.552 3.85748 100.917 3.62216C101.282 3.38352 101.752 3.2642 102.329 3.2642C102.846 3.2642 103.298 3.37027 103.686 3.58239C104.074 3.79119 104.376 4.10938 104.591 4.53693C104.807 4.96117 104.914 5.49811 104.914 6.14773V11H103.741V6.22727C103.741 5.62737 103.585 5.16004 103.274 4.82528C102.962 4.48722 102.535 4.31818 101.991 4.31818C101.616 4.31818 101.282 4.39938 100.987 4.56179C100.695 4.72419 100.465 4.96117 100.296 5.27273C100.127 5.58428 100.042 5.96212 100.042 6.40625ZM110.141 14.0227C109.574 14.0227 109.087 13.9498 108.679 13.804C108.271 13.6615 107.932 13.4725 107.66 13.2372C107.391 13.0052 107.178 12.7566 107.018 12.4915L107.953 11.8352C108.059 11.9744 108.193 12.1335 108.356 12.3125C108.518 12.4948 108.74 12.6522 109.022 12.7848C109.307 12.9207 109.68 12.9886 110.141 12.9886C110.757 12.9886 111.266 12.8395 111.667 12.5412C112.068 12.2429 112.268 11.7756 112.268 11.1392V9.58807H112.169C112.083 9.72727 111.96 9.89962 111.801 10.1051C111.645 10.3073 111.42 10.4879 111.125 10.647C110.833 10.8028 110.439 10.8807 109.942 10.8807C109.325 10.8807 108.772 10.7348 108.281 10.4432C107.794 10.1515 107.408 9.72727 107.123 9.17045C106.841 8.61364 106.7 7.9375 106.7 7.14205C106.7 6.35985 106.838 5.67874 107.113 5.09872C107.388 4.51539 107.771 4.06463 108.261 3.74645C108.752 3.42495 109.319 3.2642 109.962 3.2642C110.459 3.2642 110.853 3.34706 111.145 3.51278C111.44 3.67519 111.665 3.8608 111.821 4.0696C111.98 4.27509 112.103 4.44413 112.189 4.5767H112.308V3.36364H113.442V11.2188C113.442 11.875 113.293 12.4086 112.994 12.8196C112.699 13.2339 112.302 13.5372 111.801 13.7294C111.304 13.925 110.75 14.0227 110.141 14.0227ZM110.101 9.8267C110.571 9.8267 110.969 9.71899 111.294 9.50355C111.619 9.28812 111.866 8.97822 112.035 8.57386C112.204 8.16951 112.288 7.68561 112.288 7.12216C112.288 6.57197 112.205 6.08641 112.04 5.66548C111.874 5.24455 111.629 4.91477 111.304 4.67614C110.979 4.4375 110.578 4.31818 110.101 4.31818C109.604 4.31818 109.189 4.44413 108.858 4.69602C108.53 4.94792 108.283 5.28598 108.117 5.71023C107.955 6.13447 107.874 6.60511 107.874 7.12216C107.874 7.65246 107.956 8.12145 108.122 8.52912C108.291 8.93348 108.54 9.25166 108.868 9.48366C109.199 9.71236 109.61 9.8267 110.101 9.8267ZM128.277 5.90909C128.277 6.98295 128.083 7.91098 127.695 8.69318C127.308 9.47538 126.776 10.0786 126.099 10.5028C125.423 10.9271 124.651 11.1392 123.783 11.1392C122.914 11.1392 122.142 10.9271 121.466 10.5028C120.79 10.0786 120.258 9.47538 119.87 8.69318C119.482 7.91098 119.288 6.98295 119.288 5.90909C119.288 4.83523 119.482 3.9072 119.87 3.125C120.258 2.3428 120.79 1.73958 121.466 1.31534C122.142 0.891098 122.914 0.678977 123.783 0.678977C124.651 0.678977 125.423 0.891098 126.099 1.31534C126.776 1.73958 127.308 2.3428 127.695 3.125C128.083 3.9072 128.277 4.83523 128.277 5.90909ZM127.084 5.90909C127.084 5.02746 126.936 4.28338 126.641 3.67685C126.35 3.07031 125.954 2.61127 125.453 2.29972C124.956 1.98816 124.399 1.83239 123.783 1.83239C123.166 1.83239 122.608 1.98816 122.107 2.29972C121.61 2.61127 121.214 3.07031 120.919 3.67685C120.627 4.28338 120.482 5.02746 120.482 5.90909C120.482 6.79072 120.627 7.5348 120.919 8.14134C121.214 8.74787 121.61 9.20691 122.107 9.51847C122.608 9.83002 123.166 9.9858 123.783 9.9858C124.399 9.9858 124.956 9.83002 125.453 9.51847C125.954 9.20691 126.35 8.74787 126.641 8.14134C126.936 7.5348 127.084 6.79072 127.084 5.90909ZM130.947 13.8636C130.748 13.8636 130.571 13.8471 130.415 13.8139C130.259 13.7841 130.151 13.7543 130.092 13.7244L130.39 12.6903C130.675 12.7633 130.927 12.7898 131.146 12.7699C131.364 12.75 131.558 12.6522 131.727 12.4766C131.9 12.3042 132.057 12.0241 132.2 11.6364L132.418 11.0398L129.594 3.36364H130.867L132.975 9.44886H133.055L135.163 3.36364H136.435L133.194 12.1136C133.048 12.508 132.867 12.8345 132.652 13.093C132.437 13.3549 132.186 13.5488 131.901 13.6747C131.62 13.8007 131.301 13.8636 130.947 13.8636Z" fill="#626A87"/>
</svg>
